<mxfile host="app.diagrams.net" modified="2023-01-24T13:58:07.984Z" agent="5.0 (Windows NT 10.0; Win64; x64) AppleWebKit/537.36 (KHTML, like Gecko) Chrome/109.0.0.0 Safari/537.36" etag="6GGaDgmlaUbN2Ytera9P" version="20.8.10" type="github">
  <diagram name="Page-1" id="5c_J9JromRoOh04WYkqJ">
    <mxGraphModel dx="1434" dy="926" grid="1" gridSize="10" guides="1" tooltips="1" connect="1" arrows="1" fold="1" page="1" pageScale="1" pageWidth="850" pageHeight="1100" math="0" shadow="0">
      <root>
        <mxCell id="0" />
        <mxCell id="1" parent="0" />
        <mxCell id="4Cyk7yuHYu3_SSyQ2PHh-12" style="edgeStyle=orthogonalEdgeStyle;rounded=0;orthogonalLoop=1;jettySize=auto;html=1;" edge="1" parent="1" source="4Cyk7yuHYu3_SSyQ2PHh-1" target="4Cyk7yuHYu3_SSyQ2PHh-2">
          <mxGeometry relative="1" as="geometry" />
        </mxCell>
        <mxCell id="4Cyk7yuHYu3_SSyQ2PHh-16" style="edgeStyle=orthogonalEdgeStyle;rounded=0;orthogonalLoop=1;jettySize=auto;html=1;exitX=1;exitY=0.5;exitDx=0;exitDy=0;entryX=0;entryY=0.5;entryDx=0;entryDy=0;" edge="1" parent="1" source="4Cyk7yuHYu3_SSyQ2PHh-1" target="4Cyk7yuHYu3_SSyQ2PHh-11">
          <mxGeometry relative="1" as="geometry" />
        </mxCell>
        <mxCell id="4Cyk7yuHYu3_SSyQ2PHh-1" value="Update Particle System" style="ellipse;whiteSpace=wrap;html=1;" vertex="1" parent="1">
          <mxGeometry x="360" y="30" width="85" height="80" as="geometry" />
        </mxCell>
        <mxCell id="4Cyk7yuHYu3_SSyQ2PHh-6" style="edgeStyle=orthogonalEdgeStyle;rounded=0;orthogonalLoop=1;jettySize=auto;html=1;" edge="1" parent="1" source="4Cyk7yuHYu3_SSyQ2PHh-2" target="4Cyk7yuHYu3_SSyQ2PHh-3">
          <mxGeometry relative="1" as="geometry" />
        </mxCell>
        <mxCell id="4Cyk7yuHYu3_SSyQ2PHh-2" value="Get active emitters&amp;nbsp;" style="rounded=1;whiteSpace=wrap;html=1;" vertex="1" parent="1">
          <mxGeometry x="342.5" y="220" width="120" height="60" as="geometry" />
        </mxCell>
        <mxCell id="4Cyk7yuHYu3_SSyQ2PHh-5" style="edgeStyle=orthogonalEdgeStyle;rounded=0;orthogonalLoop=1;jettySize=auto;html=1;" edge="1" parent="1" source="4Cyk7yuHYu3_SSyQ2PHh-3" target="4Cyk7yuHYu3_SSyQ2PHh-4">
          <mxGeometry relative="1" as="geometry" />
        </mxCell>
        <mxCell id="4Cyk7yuHYu3_SSyQ2PHh-3" value="Get active particles" style="rounded=1;whiteSpace=wrap;html=1;" vertex="1" parent="1">
          <mxGeometry x="342.5" y="330" width="120" height="60" as="geometry" />
        </mxCell>
        <mxCell id="4Cyk7yuHYu3_SSyQ2PHh-27" style="edgeStyle=orthogonalEdgeStyle;rounded=0;orthogonalLoop=1;jettySize=auto;html=1;exitX=0.5;exitY=1;exitDx=0;exitDy=0;entryX=0.5;entryY=0;entryDx=0;entryDy=0;" edge="1" parent="1" source="4Cyk7yuHYu3_SSyQ2PHh-4" target="4Cyk7yuHYu3_SSyQ2PHh-26">
          <mxGeometry relative="1" as="geometry" />
        </mxCell>
        <mxCell id="4Cyk7yuHYu3_SSyQ2PHh-4" value="Get particle attributes" style="rounded=1;whiteSpace=wrap;html=1;" vertex="1" parent="1">
          <mxGeometry x="342.5" y="430" width="120" height="60" as="geometry" />
        </mxCell>
        <mxCell id="4Cyk7yuHYu3_SSyQ2PHh-21" style="edgeStyle=orthogonalEdgeStyle;rounded=0;orthogonalLoop=1;jettySize=auto;html=1;exitX=0.5;exitY=1;exitDx=0;exitDy=0;entryX=0.5;entryY=0;entryDx=0;entryDy=0;" edge="1" parent="1" source="4Cyk7yuHYu3_SSyQ2PHh-11" target="4Cyk7yuHYu3_SSyQ2PHh-20">
          <mxGeometry relative="1" as="geometry" />
        </mxCell>
        <mxCell id="4Cyk7yuHYu3_SSyQ2PHh-11" value="Active effects?" style="rhombus;whiteSpace=wrap;html=1;" vertex="1" parent="1">
          <mxGeometry x="510" y="30" width="80" height="80" as="geometry" />
        </mxCell>
        <mxCell id="4Cyk7yuHYu3_SSyQ2PHh-24" style="edgeStyle=orthogonalEdgeStyle;rounded=0;orthogonalLoop=1;jettySize=auto;html=1;entryX=0.75;entryY=0;entryDx=0;entryDy=0;" edge="1" parent="1" source="4Cyk7yuHYu3_SSyQ2PHh-15" target="4Cyk7yuHYu3_SSyQ2PHh-3">
          <mxGeometry relative="1" as="geometry">
            <mxPoint x="550" y="310" as="targetPoint" />
            <Array as="points">
              <mxPoint x="550" y="310" />
              <mxPoint x="433" y="310" />
            </Array>
          </mxGeometry>
        </mxCell>
        <mxCell id="4Cyk7yuHYu3_SSyQ2PHh-15" value="Set Attributes&lt;br&gt;" style="rounded=1;whiteSpace=wrap;html=1;" vertex="1" parent="1">
          <mxGeometry x="490" y="220" width="120" height="60" as="geometry" />
        </mxCell>
        <mxCell id="4Cyk7yuHYu3_SSyQ2PHh-22" style="edgeStyle=orthogonalEdgeStyle;rounded=0;orthogonalLoop=1;jettySize=auto;html=1;exitX=0.5;exitY=1;exitDx=0;exitDy=0;entryX=0.5;entryY=0;entryDx=0;entryDy=0;" edge="1" parent="1" source="4Cyk7yuHYu3_SSyQ2PHh-20" target="4Cyk7yuHYu3_SSyQ2PHh-15">
          <mxGeometry relative="1" as="geometry" />
        </mxCell>
        <mxCell id="4Cyk7yuHYu3_SSyQ2PHh-20" value="Get active emitters&amp;nbsp;" style="rounded=1;whiteSpace=wrap;html=1;" vertex="1" parent="1">
          <mxGeometry x="490" y="130" width="120" height="60" as="geometry" />
        </mxCell>
        <mxCell id="4Cyk7yuHYu3_SSyQ2PHh-32" style="edgeStyle=orthogonalEdgeStyle;rounded=0;orthogonalLoop=1;jettySize=auto;html=1;exitX=1;exitY=0.5;exitDx=0;exitDy=0;" edge="1" parent="1" source="4Cyk7yuHYu3_SSyQ2PHh-26" target="4Cyk7yuHYu3_SSyQ2PHh-29">
          <mxGeometry relative="1" as="geometry" />
        </mxCell>
        <mxCell id="4Cyk7yuHYu3_SSyQ2PHh-34" style="edgeStyle=orthogonalEdgeStyle;rounded=0;orthogonalLoop=1;jettySize=auto;html=1;exitX=0.5;exitY=1;exitDx=0;exitDy=0;" edge="1" parent="1" source="4Cyk7yuHYu3_SSyQ2PHh-26" target="4Cyk7yuHYu3_SSyQ2PHh-33">
          <mxGeometry relative="1" as="geometry" />
        </mxCell>
        <mxCell id="4Cyk7yuHYu3_SSyQ2PHh-26" value="Is Kill?" style="rhombus;whiteSpace=wrap;html=1;" vertex="1" parent="1">
          <mxGeometry x="362.5" y="525" width="80" height="80" as="geometry" />
        </mxCell>
        <mxCell id="4Cyk7yuHYu3_SSyQ2PHh-29" value="Kill" style="rounded=1;whiteSpace=wrap;html=1;" vertex="1" parent="1">
          <mxGeometry x="500" y="540" width="60" height="50" as="geometry" />
        </mxCell>
        <mxCell id="4Cyk7yuHYu3_SSyQ2PHh-33" value="Calc Pos/Vel&lt;br&gt;" style="rounded=1;whiteSpace=wrap;html=1;" vertex="1" parent="1">
          <mxGeometry x="342.5" y="640" width="120" height="60" as="geometry" />
        </mxCell>
      </root>
    </mxGraphModel>
  </diagram>
</mxfile>
